<svg width="92" height="92" viewBox="0 0 92 92" fill="none" xmlns="http://www.w3.org/2000/svg">
<path fill-rule="evenodd" clip-rule="evenodd" d="M23 40.25C21.9833 40.25 21.0083 40.6539 20.2894 41.3728C19.5705 42.0916 19.1666 43.0667 19.1666 44.0833V47.9167C19.1666 48.9333 19.5705 49.9084 20.2894 50.6272C21.0083 51.3461 21.9833 51.75 23 51.75H26.8333C27.85 51.75 28.825 51.3461 29.5439 50.6272C30.2628 49.9084 30.6666 48.9333 30.6666 47.9167V44.0833C30.6666 43.0667 30.2628 42.0916 29.5439 41.3728C28.825 40.6539 27.85 40.25 26.8333 40.25H23ZM23 44.0833V47.9167H26.8333V44.0833H23ZM34.5 44.0833C34.5 43.0667 34.9038 42.0916 35.6227 41.3728C36.3416 40.6539 37.3166 40.25 38.3333 40.25H42.1666C43.1833 40.25 44.1583 40.6539 44.8772 41.3728C45.5961 42.0916 46 43.0667 46 44.0833V47.9167C46 48.9333 45.5961 49.9084 44.8772 50.6272C44.1583 51.3461 43.1833 51.75 42.1666 51.75H38.3333C37.3166 51.75 36.3416 51.3461 35.6227 50.6272C34.9038 49.9084 34.5 48.9333 34.5 47.9167V44.0833ZM38.3333 44.0833H42.1666V47.9167H38.3333V44.0833ZM53.6666 40.25C52.65 40.25 51.6749 40.6539 50.9561 41.3728C50.2372 42.0916 49.8333 43.0667 49.8333 44.0833V47.9167C49.8333 48.9333 50.2372 49.9084 50.9561 50.6272C51.6749 51.3461 52.65 51.75 53.6666 51.75H57.5C58.5166 51.75 59.4916 51.3461 60.2105 50.6272C60.9294 49.9084 61.3333 48.9333 61.3333 47.9167V44.0833C61.3333 43.0667 60.9294 42.0916 60.2105 41.3728C59.4916 40.6539 58.5166 40.25 57.5 40.25H53.6666ZM53.6666 44.0833V47.9167H57.5V44.0833H53.6666ZM19.1666 59.4167C19.1666 58.4 19.5705 57.425 20.2894 56.7061C21.0083 55.9872 21.9833 55.5833 23 55.5833H26.8333C27.85 55.5833 28.825 55.9872 29.5439 56.7061C30.2628 57.425 30.6666 58.4 30.6666 59.4167V63.25C30.6666 64.2667 30.2628 65.2417 29.5439 65.9606C28.825 66.6795 27.85 67.0833 26.8333 67.0833H23C21.9833 67.0833 21.0083 66.6795 20.2894 65.9606C19.5705 65.2417 19.1666 64.2667 19.1666 63.25V59.4167ZM26.8333 59.4167V63.25H23V59.4167H26.8333ZM38.3333 55.5833C37.3166 55.5833 36.3416 55.9872 35.6227 56.7061C34.9038 57.425 34.5 58.4 34.5 59.4167V63.25C34.5 64.2667 34.9038 65.2417 35.6227 65.9606C36.3416 66.6795 37.3166 67.0833 38.3333 67.0833H42.1666C43.1833 67.0833 44.1583 66.6795 44.8772 65.9606C45.5961 65.2417 46 64.2667 46 63.25V59.4167C46 58.4 45.5961 57.425 44.8772 56.7061C44.1583 55.9872 43.1833 55.5833 42.1666 55.5833H38.3333ZM42.1666 59.4167H38.3333V63.25H42.1666V59.4167Z" fill="black"/>
<path d="M68.9997 62.2917C68.9997 61.7833 68.7978 61.2958 68.4383 60.9364C68.0789 60.5769 67.5914 60.375 67.083 60.375C66.5747 60.375 66.0872 60.5769 65.7278 60.9364C65.3683 61.2958 65.1664 61.7833 65.1664 62.2917V67.8768L67.6446 70.3551C68.0061 70.7042 68.4903 70.8974 68.9928 70.893C69.4954 70.8887 69.9761 70.6871 70.3315 70.3317C70.6868 69.9764 70.8884 69.4956 70.8928 68.9931C70.8971 68.4906 70.7039 68.0064 70.3548 67.6449L68.9997 66.2898V62.2917Z" fill="black"/>
<path fill-rule="evenodd" clip-rule="evenodd" d="M23 13.4167C23 12.9083 23.2019 12.4208 23.5614 12.0614C23.9208 11.7019 24.4083 11.5 24.9167 11.5C25.425 11.5 25.9125 11.7019 26.272 12.0614C26.6314 12.4208 26.8333 12.9083 26.8333 13.4167V23C26.8333 23.5083 27.0353 23.9958 27.3947 24.3553C27.7542 24.7147 28.2417 24.9167 28.75 24.9167C29.2583 24.9167 29.7458 24.7147 30.1053 24.3553C30.4647 23.9958 30.6667 23.5083 30.6667 23V17.25H49.8333V13.4167C49.8333 12.9083 50.0353 12.4208 50.3947 12.0614C50.7542 11.7019 51.2417 11.5 51.75 11.5C52.2583 11.5 52.7458 11.7019 53.1053 12.0614C53.4647 12.4208 53.6667 12.9083 53.6667 13.4167V23C53.6667 23.5083 53.8686 23.9958 54.228 24.3553C54.5875 24.7147 55.075 24.9167 55.5833 24.9167C56.0917 24.9167 56.5792 24.7147 56.9386 24.3553C57.2981 23.9958 57.5 23.5083 57.5 23V17.25H63.25C64.775 17.25 66.2375 17.8558 67.3159 18.9341C68.3942 20.0125 69 21.475 69 23V53.8008C72.3571 54.2861 75.4059 56.0247 77.533 58.6669C79.6601 61.3092 80.7075 64.6589 80.4646 68.0422C80.2218 71.4255 78.7066 74.5913 76.2239 76.9026C73.7412 79.214 70.4754 80.4993 67.0833 80.5C64.9201 80.5017 62.7886 79.9796 60.871 78.9783C58.9535 77.977 57.3069 76.5262 56.0721 74.75H17.25C15.725 74.75 14.2625 74.1442 13.1841 73.0659C12.1058 71.9875 11.5 70.525 11.5 69V23C11.5 21.475 12.1058 20.0125 13.1841 18.9341C14.2625 17.8558 15.725 17.25 17.25 17.25H23V13.4167ZM53.6667 67.0833C53.6658 63.8565 54.828 60.7375 56.9402 58.2979C59.0523 55.8584 61.9729 54.2618 65.1667 53.8008V34.5H15.3333V69C15.3333 69.5083 15.5353 69.9958 15.8947 70.3553C16.2542 70.7147 16.7417 70.9167 17.25 70.9167H54.2225C53.8528 69.6725 53.6656 68.3813 53.6667 67.0833ZM76.6667 67.0833C76.6667 69.625 75.657 72.0625 73.8598 73.8598C72.0626 75.657 69.625 76.6667 67.0833 76.6667C64.5417 76.6667 62.1041 75.657 60.3069 73.8598C58.5097 72.0625 57.5 69.625 57.5 67.0833C57.5 64.5417 58.5097 62.1041 60.3069 60.3069C62.1041 58.5097 64.5417 57.5 67.0833 57.5C69.625 57.5 72.0626 58.5097 73.8598 60.3069C75.657 62.1041 76.6667 64.5417 76.6667 67.0833Z" fill="black"/>
</svg>
