<svg width="120" height="120" viewBox="0 0 120 120" fill="none" xmlns="http://www.w3.org/2000/svg">
<path d="M118.887 85.1367L86.25 117.832L70.4883 102.012L75.7617 96.7383L86.25 107.168L113.613 79.8633L118.887 85.1367ZM60 22.5V52.5H82.5V60H52.5V22.5H60ZM56.25 105C56.875 105 57.5 104.98 58.125 104.941C58.75 104.902 59.375 104.863 60 104.824L66.6797 111.504C64.9219 111.816 63.1836 112.051 61.4648 112.207C59.7461 112.363 58.0078 112.461 56.25 112.5C51.0938 112.5 46.1328 111.836 41.3672 110.508C36.6016 109.18 32.1094 107.285 27.8906 104.824C23.6719 102.363 19.8828 99.4336 16.5234 96.0352C13.1641 92.6367 10.2344 88.8281 7.73438 84.6094C5.23437 80.3906 3.33984 75.918 2.05078 71.1914C0.761719 66.4648 0.078125 61.4844 0 56.25C0 51.0938 0.664063 46.1328 1.99219 41.3672C3.32031 36.6016 5.21484 32.1094 7.67578 27.8906C10.1367 23.6719 13.0664 19.8828 16.4648 16.5234C19.8633 13.1641 23.6719 10.2344 27.8906 7.73438C32.1094 5.23437 36.582 3.33984 41.3086 2.05078C46.0352 0.761719 51.0156 0.078125 56.25 0C61.4062 0 66.3672 0.664063 71.1328 1.99219C75.8984 3.32031 80.3906 5.21484 84.6094 7.67578C88.8281 10.1367 92.6172 13.0664 95.9766 16.4648C99.3359 19.8633 102.266 23.6719 104.766 27.8906C107.266 32.1094 109.16 36.582 110.449 41.3086C111.738 46.0352 112.422 51.0156 112.5 56.25C112.5 58.2031 112.383 60.1758 112.148 62.168L102.305 72.0703C104.102 66.875 105 61.6016 105 56.25C105 51.7578 104.414 47.4414 103.242 43.3008C102.07 39.1602 100.43 35.293 98.3203 31.6992C96.2109 28.1055 93.6719 24.8047 90.7031 21.7969C87.7344 18.7891 84.4531 16.25 80.8594 14.1797C77.2656 12.1094 73.3789 10.4687 69.1992 9.25781C65.0195 8.04688 60.7031 7.46094 56.25 7.5C51.7578 7.5 47.4414 8.08594 43.3008 9.25781C39.1602 10.4297 35.293 12.0703 31.6992 14.1797C28.1055 16.2891 24.8047 18.8281 21.7969 21.7969C18.7891 24.7656 16.25 28.0469 14.1797 31.6406C12.1094 35.2344 10.4687 39.1211 9.25781 43.3008C8.04688 47.4805 7.46094 51.7969 7.5 56.25C7.5 60.7422 8.08594 65.0586 9.25781 69.1992C10.4297 73.3398 12.0703 77.207 14.1797 80.8008C16.2891 84.3945 18.8281 87.6953 21.7969 90.7031C24.7656 93.7109 28.0469 96.25 31.6406 98.3203C35.2344 100.391 39.1211 102.031 43.3008 103.242C47.4805 104.453 51.7969 105.039 56.25 105Z" fill="black"/>
</svg>
