<svg width="101" height="96" viewBox="0 0 101 96" fill="none" xmlns="http://www.w3.org/2000/svg">
<path d="M17.1668 38.0361C17.167 34.6218 18.0844 31.2648 19.8309 28.2871C21.5775 25.3095 24.0946 22.811 27.1408 21.0313C30.187 19.2516 33.6602 18.2504 37.2273 18.1237C40.7943 17.9971 44.3356 18.7492 47.5114 20.308C50.6872 21.8667 53.391 24.1798 55.3635 27.0255C57.336 29.8711 58.5111 33.1538 58.776 36.5587C59.0409 39.9636 58.3867 43.3765 56.8763 46.47C55.3658 49.5636 53.0497 52.234 50.1501 54.2252C56.1671 56.517 61.3522 60.4416 65.0671 65.5161C68.782 70.5905 70.8646 76.5933 71.0584 82.7854C71.0797 83.1829 71.0177 83.5804 70.8762 83.9547C70.7347 84.329 70.5164 84.6724 70.2343 84.965C69.9521 85.2575 69.6117 85.4932 69.2331 85.6582C68.8544 85.8232 68.4451 85.9142 68.0292 85.9259C67.6133 85.9375 67.1991 85.8696 66.811 85.7262C66.4229 85.5827 66.0686 85.3665 65.769 85.0903C65.4694 84.8141 65.2305 84.4835 65.0662 84.1178C64.902 83.7521 64.8158 83.3587 64.8126 82.9607C64.5993 76.2619 61.6672 69.9058 56.638 65.2396C51.6087 60.5733 44.8775 57.9636 37.8709 57.9636C30.8644 57.9636 24.1332 60.5733 19.1039 65.2396C14.0746 69.9058 11.1426 76.2619 10.9293 82.9607C10.8876 83.7412 10.5279 84.4751 9.92744 85.005C9.32694 85.535 8.53335 85.8189 7.71666 85.796C6.89998 85.773 6.12516 85.4451 5.55819 84.8823C4.99123 84.3196 4.67723 83.5669 4.68344 82.7854C4.8792 76.5642 6.9814 70.5351 10.7289 65.447C14.4764 60.3589 19.7041 56.4359 25.7626 54.1655C23.1002 52.3171 20.9333 49.8919 19.4392 47.0884C17.9452 44.2849 17.1664 41.1828 17.1668 38.0361ZM38.0001 24.0868C36.085 24.0868 34.1886 24.4476 32.4193 25.1487C30.65 25.8497 29.0423 26.8772 27.6881 28.1725C26.3339 29.4678 25.2597 31.0056 24.5269 32.698C23.794 34.3904 23.4168 36.2043 23.4168 38.0361C23.4168 39.868 23.794 41.6819 24.5269 43.3743C25.2597 45.0667 26.3339 46.6044 27.6881 47.8997C29.0423 49.195 30.65 50.2225 32.4193 50.9236C34.1886 51.6246 36.085 51.9854 38.0001 51.9854C41.8679 51.9854 45.5772 50.5157 48.3121 47.8997C51.047 45.2837 52.5834 41.7357 52.5834 38.0361C52.5834 34.3365 51.047 30.7885 48.3121 28.1725C45.5772 25.5565 41.8679 24.0868 38.0001 24.0868ZM80.7084 4.1593C81.5372 4.1593 82.3321 4.47423 82.9182 5.0348C83.5042 5.59537 83.8334 6.35567 83.8334 7.14843V16.1158H93.2084C94.0372 16.1158 94.8321 16.4307 95.4182 16.9913C96.0042 17.5519 96.3334 18.3122 96.3334 19.105C96.3334 19.8977 96.0042 20.658 95.4182 21.2186C94.8321 21.7792 94.0372 22.0941 93.2084 22.0941H83.8334V31.0615C83.8334 31.8542 83.5042 32.6145 82.9182 33.1751C82.3321 33.7357 81.5372 34.0506 80.7084 34.0506C79.8796 34.0506 79.0848 33.7357 78.4987 33.1751C77.9127 32.6145 77.5834 31.8542 77.5834 31.0615V22.0941H68.2084C67.3796 22.0941 66.5848 21.7792 65.9987 21.2186C65.4127 20.658 65.0834 19.8977 65.0834 19.105C65.0834 18.3122 65.4127 17.5519 65.9987 16.9913C66.5848 16.4307 67.3796 16.1158 68.2084 16.1158H77.5834V7.14843C77.5834 6.35567 77.9127 5.59537 78.4987 5.0348C79.0848 4.47423 79.8796 4.1593 80.7084 4.1593Z" fill="black"/>
</svg>
