<svg width="137" height="137" viewBox="0 0 137 137" fill="none" xmlns="http://www.w3.org/2000/svg">
<path d="M112.18 110.77C115.331 110.114 117.215 106.814 115.645 103.994C112.186 97.7895 106.74 92.3324 99.7761 88.1767C90.8026 82.8223 79.8027 79.9167 68.5002 79.9167C57.1977 79.9167 46.1977 82.8166 37.2242 88.1767C30.26 92.3324 24.8143 97.7895 21.355 103.994C19.7852 106.814 21.669 110.114 24.82 110.77C53.6287 116.775 83.3659 116.775 112.175 110.77" fill="white"/>
<path d="M68.5 74.2083C84.2631 74.2083 97.0416 61.4298 97.0416 45.6667C97.0416 29.9035 84.2631 17.125 68.5 17.125C52.7369 17.125 39.9583 29.9035 39.9583 45.6667C39.9583 61.4298 52.7369 74.2083 68.5 74.2083Z" fill="white"/>
</svg>
